<?xml version="1.0" encoding="utf-8" standalone="no"?>
<!DOCTYPE svg PUBLIC "-//W3C//DTD SVG 1.1//EN"
  "http://www.w3.org/Graphics/SVG/1.1/DTD/svg11.dtd">
<svg xmlns:xlink="http://www.w3.org/1999/xlink" width="720pt" height="288pt" viewBox="0 0 720 288" xmlns="http://www.w3.org/2000/svg" version="1.1">
 <metadata>
  <rdf:RDF xmlns:dc="http://purl.org/dc/elements/1.1/" xmlns:cc="http://creativecommons.org/ns#" xmlns:rdf="http://www.w3.org/1999/02/22-rdf-syntax-ns#">
   <cc:Work>
    <dc:type rdf:resource="http://purl.org/dc/dcmitype/StillImage"/>
    <dc:date>2022-07-19T20:45:55.087052</dc:date>
    <dc:format>image/svg+xml</dc:format>
    <dc:creator>
     <cc:Agent>
      <dc:title>Matplotlib v3.5.2, https://matplotlib.org/</dc:title>
     </cc:Agent>
    </dc:creator>
   </cc:Work>
  </rdf:RDF>
 </metadata>
 <defs>
  <style type="text/css">*{stroke-linejoin: round; stroke-linecap: butt}</style>
 </defs>
 <g id="figure_1">
  <g id="patch_1">
   <path d="M 0 288 
L 720 288 
L 720 0 
L 0 0 
z
" style="fill: #ffffff"/>
  </g>
  <g id="axes_1">
   <g id="patch_2">
    <path d="M 53.75 243.16 
L 702.81 243.16 
L 702.81 49.44 
L 53.75 49.44 
z
" style="fill: #e5e5e5"/>
   </g>
   <g id="matplotlib.axis_1">
    <g id="xtick_1">
     <g id="line2d_1">
      <path d="M 53.75 243.16 
L 53.75 49.44 
" clip-path="url(#p2abaa0eec9)" style="fill: none; stroke: #ffffff; stroke-width: 0.8; stroke-linecap: square"/>
     </g>
     <g id="line2d_2">
      <defs>
       <path id="m30bb93a70c" d="M 0 0 
L 0 3.5 
" style="stroke: #555555; stroke-width: 0.8"/>
      </defs>
      <g>
       <use xlink:href="#m30bb93a70c" x="53.75" y="243.16" style="fill: #555555; stroke: #555555; stroke-width: 0.8"/>
      </g>
     </g>
     <g id="text_1">
      <!-- 0 -->
      <g style="fill: #555555" transform="translate(50.56875 257.758438)scale(0.1 -0.1)">
       <defs>
        <path id="DejaVuSans-30" d="M 2034 4250 
Q 1547 4250 1301 3770 
Q 1056 3291 1056 2328 
Q 1056 1369 1301 889 
Q 1547 409 2034 409 
Q 2525 409 2770 889 
Q 3016 1369 3016 2328 
Q 3016 3291 2770 3770 
Q 2525 4250 2034 4250 
z
M 2034 4750 
Q 2819 4750 3233 4129 
Q 3647 3509 3647 2328 
Q 3647 1150 3233 529 
Q 2819 -91 2034 -91 
Q 1250 -91 836 529 
Q 422 1150 422 2328 
Q 422 3509 836 4129 
Q 1250 4750 2034 4750 
z
" transform="scale(0.015625)"/>
       </defs>
       <use xlink:href="#DejaVuSans-30"/>
      </g>
     </g>
    </g>
    <g id="xtick_2">
     <g id="line2d_3">
      <path d="M 161.926667 243.16 
L 161.926667 49.44 
" clip-path="url(#p2abaa0eec9)" style="fill: none; stroke: #ffffff; stroke-width: 0.8; stroke-linecap: square"/>
     </g>
     <g id="line2d_4">
      <g>
       <use xlink:href="#m30bb93a70c" x="161.926667" y="243.16" style="fill: #555555; stroke: #555555; stroke-width: 0.8"/>
      </g>
     </g>
     <g id="text_2">
      <!-- 1 -->
      <g style="fill: #555555" transform="translate(158.745417 257.758438)scale(0.1 -0.1)">
       <defs>
        <path id="DejaVuSans-31" d="M 794 531 
L 1825 531 
L 1825 4091 
L 703 3866 
L 703 4441 
L 1819 4666 
L 2450 4666 
L 2450 531 
L 3481 531 
L 3481 0 
L 794 0 
L 794 531 
z
" transform="scale(0.015625)"/>
       </defs>
       <use xlink:href="#DejaVuSans-31"/>
      </g>
     </g>
    </g>
    <g id="xtick_3">
     <g id="line2d_5">
      <path d="M 270.103333 243.16 
L 270.103333 49.44 
" clip-path="url(#p2abaa0eec9)" style="fill: none; stroke: #ffffff; stroke-width: 0.8; stroke-linecap: square"/>
     </g>
     <g id="line2d_6">
      <g>
       <use xlink:href="#m30bb93a70c" x="270.103333" y="243.16" style="fill: #555555; stroke: #555555; stroke-width: 0.8"/>
      </g>
     </g>
     <g id="text_3">
      <!-- 2 -->
      <g style="fill: #555555" transform="translate(266.922083 257.758438)scale(0.1 -0.1)">
       <defs>
        <path id="DejaVuSans-32" d="M 1228 531 
L 3431 531 
L 3431 0 
L 469 0 
L 469 531 
Q 828 903 1448 1529 
Q 2069 2156 2228 2338 
Q 2531 2678 2651 2914 
Q 2772 3150 2772 3378 
Q 2772 3750 2511 3984 
Q 2250 4219 1831 4219 
Q 1534 4219 1204 4116 
Q 875 4013 500 3803 
L 500 4441 
Q 881 4594 1212 4672 
Q 1544 4750 1819 4750 
Q 2544 4750 2975 4387 
Q 3406 4025 3406 3419 
Q 3406 3131 3298 2873 
Q 3191 2616 2906 2266 
Q 2828 2175 2409 1742 
Q 1991 1309 1228 531 
z
" transform="scale(0.015625)"/>
       </defs>
       <use xlink:href="#DejaVuSans-32"/>
      </g>
     </g>
    </g>
    <g id="xtick_4">
     <g id="line2d_7">
      <path d="M 378.28 243.16 
L 378.28 49.44 
" clip-path="url(#p2abaa0eec9)" style="fill: none; stroke: #ffffff; stroke-width: 0.8; stroke-linecap: square"/>
     </g>
     <g id="line2d_8">
      <g>
       <use xlink:href="#m30bb93a70c" x="378.28" y="243.16" style="fill: #555555; stroke: #555555; stroke-width: 0.8"/>
      </g>
     </g>
     <g id="text_4">
      <!-- 3 -->
      <g style="fill: #555555" transform="translate(375.09875 257.758438)scale(0.1 -0.1)">
       <defs>
        <path id="DejaVuSans-33" d="M 2597 2516 
Q 3050 2419 3304 2112 
Q 3559 1806 3559 1356 
Q 3559 666 3084 287 
Q 2609 -91 1734 -91 
Q 1441 -91 1130 -33 
Q 819 25 488 141 
L 488 750 
Q 750 597 1062 519 
Q 1375 441 1716 441 
Q 2309 441 2620 675 
Q 2931 909 2931 1356 
Q 2931 1769 2642 2001 
Q 2353 2234 1838 2234 
L 1294 2234 
L 1294 2753 
L 1863 2753 
Q 2328 2753 2575 2939 
Q 2822 3125 2822 3475 
Q 2822 3834 2567 4026 
Q 2313 4219 1838 4219 
Q 1578 4219 1281 4162 
Q 984 4106 628 3988 
L 628 4550 
Q 988 4650 1302 4700 
Q 1616 4750 1894 4750 
Q 2613 4750 3031 4423 
Q 3450 4097 3450 3541 
Q 3450 3153 3228 2886 
Q 3006 2619 2597 2516 
z
" transform="scale(0.015625)"/>
       </defs>
       <use xlink:href="#DejaVuSans-33"/>
      </g>
     </g>
    </g>
    <g id="xtick_5">
     <g id="line2d_9">
      <path d="M 486.456667 243.16 
L 486.456667 49.44 
" clip-path="url(#p2abaa0eec9)" style="fill: none; stroke: #ffffff; stroke-width: 0.8; stroke-linecap: square"/>
     </g>
     <g id="line2d_10">
      <g>
       <use xlink:href="#m30bb93a70c" x="486.456667" y="243.16" style="fill: #555555; stroke: #555555; stroke-width: 0.8"/>
      </g>
     </g>
     <g id="text_5">
      <!-- 4 -->
      <g style="fill: #555555" transform="translate(483.275417 257.758438)scale(0.1 -0.1)">
       <defs>
        <path id="DejaVuSans-34" d="M 2419 4116 
L 825 1625 
L 2419 1625 
L 2419 4116 
z
M 2253 4666 
L 3047 4666 
L 3047 1625 
L 3713 1625 
L 3713 1100 
L 3047 1100 
L 3047 0 
L 2419 0 
L 2419 1100 
L 313 1100 
L 313 1709 
L 2253 4666 
z
" transform="scale(0.015625)"/>
       </defs>
       <use xlink:href="#DejaVuSans-34"/>
      </g>
     </g>
    </g>
    <g id="xtick_6">
     <g id="line2d_11">
      <path d="M 594.633333 243.16 
L 594.633333 49.44 
" clip-path="url(#p2abaa0eec9)" style="fill: none; stroke: #ffffff; stroke-width: 0.8; stroke-linecap: square"/>
     </g>
     <g id="line2d_12">
      <g>
       <use xlink:href="#m30bb93a70c" x="594.633333" y="243.16" style="fill: #555555; stroke: #555555; stroke-width: 0.8"/>
      </g>
     </g>
     <g id="text_6">
      <!-- 5 -->
      <g style="fill: #555555" transform="translate(591.452083 257.758438)scale(0.1 -0.1)">
       <defs>
        <path id="DejaVuSans-35" d="M 691 4666 
L 3169 4666 
L 3169 4134 
L 1269 4134 
L 1269 2991 
Q 1406 3038 1543 3061 
Q 1681 3084 1819 3084 
Q 2600 3084 3056 2656 
Q 3513 2228 3513 1497 
Q 3513 744 3044 326 
Q 2575 -91 1722 -91 
Q 1428 -91 1123 -41 
Q 819 9 494 109 
L 494 744 
Q 775 591 1075 516 
Q 1375 441 1709 441 
Q 2250 441 2565 725 
Q 2881 1009 2881 1497 
Q 2881 1984 2565 2268 
Q 2250 2553 1709 2553 
Q 1456 2553 1204 2497 
Q 953 2441 691 2322 
L 691 4666 
z
" transform="scale(0.015625)"/>
       </defs>
       <use xlink:href="#DejaVuSans-35"/>
      </g>
     </g>
    </g>
    <g id="xtick_7">
     <g id="line2d_13">
      <path d="M 702.81 243.16 
L 702.81 49.44 
" clip-path="url(#p2abaa0eec9)" style="fill: none; stroke: #ffffff; stroke-width: 0.8; stroke-linecap: square"/>
     </g>
     <g id="line2d_14">
      <g>
       <use xlink:href="#m30bb93a70c" x="702.81" y="243.16" style="fill: #555555; stroke: #555555; stroke-width: 0.8"/>
      </g>
     </g>
     <g id="text_7">
      <!-- 6 -->
      <g style="fill: #555555" transform="translate(699.62875 257.758438)scale(0.1 -0.1)">
       <defs>
        <path id="DejaVuSans-36" d="M 2113 2584 
Q 1688 2584 1439 2293 
Q 1191 2003 1191 1497 
Q 1191 994 1439 701 
Q 1688 409 2113 409 
Q 2538 409 2786 701 
Q 3034 994 3034 1497 
Q 3034 2003 2786 2293 
Q 2538 2584 2113 2584 
z
M 3366 4563 
L 3366 3988 
Q 3128 4100 2886 4159 
Q 2644 4219 2406 4219 
Q 1781 4219 1451 3797 
Q 1122 3375 1075 2522 
Q 1259 2794 1537 2939 
Q 1816 3084 2150 3084 
Q 2853 3084 3261 2657 
Q 3669 2231 3669 1497 
Q 3669 778 3244 343 
Q 2819 -91 2113 -91 
Q 1303 -91 875 529 
Q 447 1150 447 2328 
Q 447 3434 972 4092 
Q 1497 4750 2381 4750 
Q 2619 4750 2861 4703 
Q 3103 4656 3366 4563 
z
" transform="scale(0.015625)"/>
       </defs>
       <use xlink:href="#DejaVuSans-36"/>
      </g>
     </g>
    </g>
    <g id="text_8">
     <!-- Time since start (minutes) -->
     <g style="fill: #555555" transform="translate(299.351875 272.95625)scale(0.12 -0.12)">
      <defs>
       <path id="DejaVuSans-54" d="M -19 4666 
L 3928 4666 
L 3928 4134 
L 2272 4134 
L 2272 0 
L 1638 0 
L 1638 4134 
L -19 4134 
L -19 4666 
z
" transform="scale(0.015625)"/>
       <path id="DejaVuSans-69" d="M 603 3500 
L 1178 3500 
L 1178 0 
L 603 0 
L 603 3500 
z
M 603 4863 
L 1178 4863 
L 1178 4134 
L 603 4134 
L 603 4863 
z
" transform="scale(0.015625)"/>
       <path id="DejaVuSans-6d" d="M 3328 2828 
Q 3544 3216 3844 3400 
Q 4144 3584 4550 3584 
Q 5097 3584 5394 3201 
Q 5691 2819 5691 2113 
L 5691 0 
L 5113 0 
L 5113 2094 
Q 5113 2597 4934 2840 
Q 4756 3084 4391 3084 
Q 3944 3084 3684 2787 
Q 3425 2491 3425 1978 
L 3425 0 
L 2847 0 
L 2847 2094 
Q 2847 2600 2669 2842 
Q 2491 3084 2119 3084 
Q 1678 3084 1418 2786 
Q 1159 2488 1159 1978 
L 1159 0 
L 581 0 
L 581 3500 
L 1159 3500 
L 1159 2956 
Q 1356 3278 1631 3431 
Q 1906 3584 2284 3584 
Q 2666 3584 2933 3390 
Q 3200 3197 3328 2828 
z
" transform="scale(0.015625)"/>
       <path id="DejaVuSans-65" d="M 3597 1894 
L 3597 1613 
L 953 1613 
Q 991 1019 1311 708 
Q 1631 397 2203 397 
Q 2534 397 2845 478 
Q 3156 559 3463 722 
L 3463 178 
Q 3153 47 2828 -22 
Q 2503 -91 2169 -91 
Q 1331 -91 842 396 
Q 353 884 353 1716 
Q 353 2575 817 3079 
Q 1281 3584 2069 3584 
Q 2775 3584 3186 3129 
Q 3597 2675 3597 1894 
z
M 3022 2063 
Q 3016 2534 2758 2815 
Q 2500 3097 2075 3097 
Q 1594 3097 1305 2825 
Q 1016 2553 972 2059 
L 3022 2063 
z
" transform="scale(0.015625)"/>
       <path id="DejaVuSans-20" transform="scale(0.015625)"/>
       <path id="DejaVuSans-73" d="M 2834 3397 
L 2834 2853 
Q 2591 2978 2328 3040 
Q 2066 3103 1784 3103 
Q 1356 3103 1142 2972 
Q 928 2841 928 2578 
Q 928 2378 1081 2264 
Q 1234 2150 1697 2047 
L 1894 2003 
Q 2506 1872 2764 1633 
Q 3022 1394 3022 966 
Q 3022 478 2636 193 
Q 2250 -91 1575 -91 
Q 1294 -91 989 -36 
Q 684 19 347 128 
L 347 722 
Q 666 556 975 473 
Q 1284 391 1588 391 
Q 1994 391 2212 530 
Q 2431 669 2431 922 
Q 2431 1156 2273 1281 
Q 2116 1406 1581 1522 
L 1381 1569 
Q 847 1681 609 1914 
Q 372 2147 372 2553 
Q 372 3047 722 3315 
Q 1072 3584 1716 3584 
Q 2034 3584 2315 3537 
Q 2597 3491 2834 3397 
z
" transform="scale(0.015625)"/>
       <path id="DejaVuSans-6e" d="M 3513 2113 
L 3513 0 
L 2938 0 
L 2938 2094 
Q 2938 2591 2744 2837 
Q 2550 3084 2163 3084 
Q 1697 3084 1428 2787 
Q 1159 2491 1159 1978 
L 1159 0 
L 581 0 
L 581 3500 
L 1159 3500 
L 1159 2956 
Q 1366 3272 1645 3428 
Q 1925 3584 2291 3584 
Q 2894 3584 3203 3211 
Q 3513 2838 3513 2113 
z
" transform="scale(0.015625)"/>
       <path id="DejaVuSans-63" d="M 3122 3366 
L 3122 2828 
Q 2878 2963 2633 3030 
Q 2388 3097 2138 3097 
Q 1578 3097 1268 2742 
Q 959 2388 959 1747 
Q 959 1106 1268 751 
Q 1578 397 2138 397 
Q 2388 397 2633 464 
Q 2878 531 3122 666 
L 3122 134 
Q 2881 22 2623 -34 
Q 2366 -91 2075 -91 
Q 1284 -91 818 406 
Q 353 903 353 1747 
Q 353 2603 823 3093 
Q 1294 3584 2113 3584 
Q 2378 3584 2631 3529 
Q 2884 3475 3122 3366 
z
" transform="scale(0.015625)"/>
       <path id="DejaVuSans-74" d="M 1172 4494 
L 1172 3500 
L 2356 3500 
L 2356 3053 
L 1172 3053 
L 1172 1153 
Q 1172 725 1289 603 
Q 1406 481 1766 481 
L 2356 481 
L 2356 0 
L 1766 0 
Q 1100 0 847 248 
Q 594 497 594 1153 
L 594 3053 
L 172 3053 
L 172 3500 
L 594 3500 
L 594 4494 
L 1172 4494 
z
" transform="scale(0.015625)"/>
       <path id="DejaVuSans-61" d="M 2194 1759 
Q 1497 1759 1228 1600 
Q 959 1441 959 1056 
Q 959 750 1161 570 
Q 1363 391 1709 391 
Q 2188 391 2477 730 
Q 2766 1069 2766 1631 
L 2766 1759 
L 2194 1759 
z
M 3341 1997 
L 3341 0 
L 2766 0 
L 2766 531 
Q 2569 213 2275 61 
Q 1981 -91 1556 -91 
Q 1019 -91 701 211 
Q 384 513 384 1019 
Q 384 1609 779 1909 
Q 1175 2209 1959 2209 
L 2766 2209 
L 2766 2266 
Q 2766 2663 2505 2880 
Q 2244 3097 1772 3097 
Q 1472 3097 1187 3025 
Q 903 2953 641 2809 
L 641 3341 
Q 956 3463 1253 3523 
Q 1550 3584 1831 3584 
Q 2591 3584 2966 3190 
Q 3341 2797 3341 1997 
z
" transform="scale(0.015625)"/>
       <path id="DejaVuSans-72" d="M 2631 2963 
Q 2534 3019 2420 3045 
Q 2306 3072 2169 3072 
Q 1681 3072 1420 2755 
Q 1159 2438 1159 1844 
L 1159 0 
L 581 0 
L 581 3500 
L 1159 3500 
L 1159 2956 
Q 1341 3275 1631 3429 
Q 1922 3584 2338 3584 
Q 2397 3584 2469 3576 
Q 2541 3569 2628 3553 
L 2631 2963 
z
" transform="scale(0.015625)"/>
       <path id="DejaVuSans-28" d="M 1984 4856 
Q 1566 4138 1362 3434 
Q 1159 2731 1159 2009 
Q 1159 1288 1364 580 
Q 1569 -128 1984 -844 
L 1484 -844 
Q 1016 -109 783 600 
Q 550 1309 550 2009 
Q 550 2706 781 3412 
Q 1013 4119 1484 4856 
L 1984 4856 
z
" transform="scale(0.015625)"/>
       <path id="DejaVuSans-75" d="M 544 1381 
L 544 3500 
L 1119 3500 
L 1119 1403 
Q 1119 906 1312 657 
Q 1506 409 1894 409 
Q 2359 409 2629 706 
Q 2900 1003 2900 1516 
L 2900 3500 
L 3475 3500 
L 3475 0 
L 2900 0 
L 2900 538 
Q 2691 219 2414 64 
Q 2138 -91 1772 -91 
Q 1169 -91 856 284 
Q 544 659 544 1381 
z
M 1991 3584 
L 1991 3584 
z
" transform="scale(0.015625)"/>
       <path id="DejaVuSans-29" d="M 513 4856 
L 1013 4856 
Q 1481 4119 1714 3412 
Q 1947 2706 1947 2009 
Q 1947 1309 1714 600 
Q 1481 -109 1013 -844 
L 513 -844 
Q 928 -128 1133 580 
Q 1338 1288 1338 2009 
Q 1338 2731 1133 3434 
Q 928 4138 513 4856 
z
" transform="scale(0.015625)"/>
      </defs>
      <use xlink:href="#DejaVuSans-54"/>
      <use xlink:href="#DejaVuSans-69" x="57.958984"/>
      <use xlink:href="#DejaVuSans-6d" x="85.742188"/>
      <use xlink:href="#DejaVuSans-65" x="183.154297"/>
      <use xlink:href="#DejaVuSans-20" x="244.677734"/>
      <use xlink:href="#DejaVuSans-73" x="276.464844"/>
      <use xlink:href="#DejaVuSans-69" x="328.564453"/>
      <use xlink:href="#DejaVuSans-6e" x="356.347656"/>
      <use xlink:href="#DejaVuSans-63" x="419.726562"/>
      <use xlink:href="#DejaVuSans-65" x="474.707031"/>
      <use xlink:href="#DejaVuSans-20" x="536.230469"/>
      <use xlink:href="#DejaVuSans-73" x="568.017578"/>
      <use xlink:href="#DejaVuSans-74" x="620.117188"/>
      <use xlink:href="#DejaVuSans-61" x="659.326172"/>
      <use xlink:href="#DejaVuSans-72" x="720.605469"/>
      <use xlink:href="#DejaVuSans-74" x="761.71875"/>
      <use xlink:href="#DejaVuSans-20" x="800.927734"/>
      <use xlink:href="#DejaVuSans-28" x="832.714844"/>
      <use xlink:href="#DejaVuSans-6d" x="871.728516"/>
      <use xlink:href="#DejaVuSans-69" x="969.140625"/>
      <use xlink:href="#DejaVuSans-6e" x="996.923828"/>
      <use xlink:href="#DejaVuSans-75" x="1060.302734"/>
      <use xlink:href="#DejaVuSans-74" x="1123.681641"/>
      <use xlink:href="#DejaVuSans-65" x="1162.890625"/>
      <use xlink:href="#DejaVuSans-73" x="1224.414062"/>
      <use xlink:href="#DejaVuSans-29" x="1276.513672"/>
     </g>
    </g>
   </g>
   <g id="matplotlib.axis_2">
    <g id="ytick_1">
     <g id="line2d_15">
      <path d="M 53.75 243.16 
L 702.81 243.16 
" clip-path="url(#p2abaa0eec9)" style="fill: none; stroke: #ffffff; stroke-width: 0.8; stroke-linecap: square"/>
     </g>
     <g id="line2d_16">
      <defs>
       <path id="mf6873ef59b" d="M 0 0 
L -3.5 0 
" style="stroke: #555555; stroke-width: 0.8"/>
      </defs>
      <g>
       <use xlink:href="#mf6873ef59b" x="53.75" y="243.16" style="fill: #555555; stroke: #555555; stroke-width: 0.8"/>
      </g>
     </g>
     <g id="text_9">
      <!-- 0 -->
      <g style="fill: #555555" transform="translate(40.3875 246.959219)scale(0.1 -0.1)">
       <use xlink:href="#DejaVuSans-30"/>
      </g>
     </g>
    </g>
    <g id="ytick_2">
     <g id="line2d_17">
      <path d="M 53.75 210.873333 
L 702.81 210.873333 
" clip-path="url(#p2abaa0eec9)" style="fill: none; stroke: #ffffff; stroke-width: 0.8; stroke-linecap: square"/>
     </g>
     <g id="line2d_18">
      <g>
       <use xlink:href="#mf6873ef59b" x="53.75" y="210.873333" style="fill: #555555; stroke: #555555; stroke-width: 0.8"/>
      </g>
     </g>
     <g id="text_10">
      <!-- 100 -->
      <g style="fill: #555555" transform="translate(27.6625 214.672552)scale(0.1 -0.1)">
       <use xlink:href="#DejaVuSans-31"/>
       <use xlink:href="#DejaVuSans-30" x="63.623047"/>
       <use xlink:href="#DejaVuSans-30" x="127.246094"/>
      </g>
     </g>
    </g>
    <g id="ytick_3">
     <g id="line2d_19">
      <path d="M 53.75 178.586667 
L 702.81 178.586667 
" clip-path="url(#p2abaa0eec9)" style="fill: none; stroke: #ffffff; stroke-width: 0.8; stroke-linecap: square"/>
     </g>
     <g id="line2d_20">
      <g>
       <use xlink:href="#mf6873ef59b" x="53.75" y="178.586667" style="fill: #555555; stroke: #555555; stroke-width: 0.8"/>
      </g>
     </g>
     <g id="text_11">
      <!-- 200 -->
      <g style="fill: #555555" transform="translate(27.6625 182.385885)scale(0.1 -0.1)">
       <use xlink:href="#DejaVuSans-32"/>
       <use xlink:href="#DejaVuSans-30" x="63.623047"/>
       <use xlink:href="#DejaVuSans-30" x="127.246094"/>
      </g>
     </g>
    </g>
    <g id="ytick_4">
     <g id="line2d_21">
      <path d="M 53.75 146.3 
L 702.81 146.3 
" clip-path="url(#p2abaa0eec9)" style="fill: none; stroke: #ffffff; stroke-width: 0.8; stroke-linecap: square"/>
     </g>
     <g id="line2d_22">
      <g>
       <use xlink:href="#mf6873ef59b" x="53.75" y="146.3" style="fill: #555555; stroke: #555555; stroke-width: 0.8"/>
      </g>
     </g>
     <g id="text_12">
      <!-- 300 -->
      <g style="fill: #555555" transform="translate(27.6625 150.099219)scale(0.1 -0.1)">
       <use xlink:href="#DejaVuSans-33"/>
       <use xlink:href="#DejaVuSans-30" x="63.623047"/>
       <use xlink:href="#DejaVuSans-30" x="127.246094"/>
      </g>
     </g>
    </g>
    <g id="ytick_5">
     <g id="line2d_23">
      <path d="M 53.75 114.013333 
L 702.81 114.013333 
" clip-path="url(#p2abaa0eec9)" style="fill: none; stroke: #ffffff; stroke-width: 0.8; stroke-linecap: square"/>
     </g>
     <g id="line2d_24">
      <g>
       <use xlink:href="#mf6873ef59b" x="53.75" y="114.013333" style="fill: #555555; stroke: #555555; stroke-width: 0.8"/>
      </g>
     </g>
     <g id="text_13">
      <!-- 400 -->
      <g style="fill: #555555" transform="translate(27.6625 117.812552)scale(0.1 -0.1)">
       <use xlink:href="#DejaVuSans-34"/>
       <use xlink:href="#DejaVuSans-30" x="63.623047"/>
       <use xlink:href="#DejaVuSans-30" x="127.246094"/>
      </g>
     </g>
    </g>
    <g id="ytick_6">
     <g id="line2d_25">
      <path d="M 53.75 81.726667 
L 702.81 81.726667 
" clip-path="url(#p2abaa0eec9)" style="fill: none; stroke: #ffffff; stroke-width: 0.8; stroke-linecap: square"/>
     </g>
     <g id="line2d_26">
      <g>
       <use xlink:href="#mf6873ef59b" x="53.75" y="81.726667" style="fill: #555555; stroke: #555555; stroke-width: 0.8"/>
      </g>
     </g>
     <g id="text_14">
      <!-- 500 -->
      <g style="fill: #555555" transform="translate(27.6625 85.525885)scale(0.1 -0.1)">
       <use xlink:href="#DejaVuSans-35"/>
       <use xlink:href="#DejaVuSans-30" x="63.623047"/>
       <use xlink:href="#DejaVuSans-30" x="127.246094"/>
      </g>
     </g>
    </g>
    <g id="ytick_7">
     <g id="line2d_27">
      <path d="M 53.75 49.44 
L 702.81 49.44 
" clip-path="url(#p2abaa0eec9)" style="fill: none; stroke: #ffffff; stroke-width: 0.8; stroke-linecap: square"/>
     </g>
     <g id="line2d_28">
      <g>
       <use xlink:href="#mf6873ef59b" x="53.75" y="49.44" style="fill: #555555; stroke: #555555; stroke-width: 0.8"/>
      </g>
     </g>
     <g id="text_15">
      <!-- 600 -->
      <g style="fill: #555555" transform="translate(27.6625 53.239219)scale(0.1 -0.1)">
       <use xlink:href="#DejaVuSans-36"/>
       <use xlink:href="#DejaVuSans-30" x="63.623047"/>
       <use xlink:href="#DejaVuSans-30" x="127.246094"/>
      </g>
     </g>
    </g>
    <g id="text_16">
     <!-- Added latency (ms) -->
     <g style="fill: #555555" transform="translate(21.166875 204.924688)rotate(-90)scale(0.12 -0.12)">
      <defs>
       <path id="DejaVuSans-41" d="M 2188 4044 
L 1331 1722 
L 3047 1722 
L 2188 4044 
z
M 1831 4666 
L 2547 4666 
L 4325 0 
L 3669 0 
L 3244 1197 
L 1141 1197 
L 716 0 
L 50 0 
L 1831 4666 
z
" transform="scale(0.015625)"/>
       <path id="DejaVuSans-64" d="M 2906 2969 
L 2906 4863 
L 3481 4863 
L 3481 0 
L 2906 0 
L 2906 525 
Q 2725 213 2448 61 
Q 2172 -91 1784 -91 
Q 1150 -91 751 415 
Q 353 922 353 1747 
Q 353 2572 751 3078 
Q 1150 3584 1784 3584 
Q 2172 3584 2448 3432 
Q 2725 3281 2906 2969 
z
M 947 1747 
Q 947 1113 1208 752 
Q 1469 391 1925 391 
Q 2381 391 2643 752 
Q 2906 1113 2906 1747 
Q 2906 2381 2643 2742 
Q 2381 3103 1925 3103 
Q 1469 3103 1208 2742 
Q 947 2381 947 1747 
z
" transform="scale(0.015625)"/>
       <path id="DejaVuSans-6c" d="M 603 4863 
L 1178 4863 
L 1178 0 
L 603 0 
L 603 4863 
z
" transform="scale(0.015625)"/>
       <path id="DejaVuSans-79" d="M 2059 -325 
Q 1816 -950 1584 -1140 
Q 1353 -1331 966 -1331 
L 506 -1331 
L 506 -850 
L 844 -850 
Q 1081 -850 1212 -737 
Q 1344 -625 1503 -206 
L 1606 56 
L 191 3500 
L 800 3500 
L 1894 763 
L 2988 3500 
L 3597 3500 
L 2059 -325 
z
" transform="scale(0.015625)"/>
      </defs>
      <use xlink:href="#DejaVuSans-41"/>
      <use xlink:href="#DejaVuSans-64" x="66.658203"/>
      <use xlink:href="#DejaVuSans-64" x="130.134766"/>
      <use xlink:href="#DejaVuSans-65" x="193.611328"/>
      <use xlink:href="#DejaVuSans-64" x="255.134766"/>
      <use xlink:href="#DejaVuSans-20" x="318.611328"/>
      <use xlink:href="#DejaVuSans-6c" x="350.398438"/>
      <use xlink:href="#DejaVuSans-61" x="378.181641"/>
      <use xlink:href="#DejaVuSans-74" x="439.460938"/>
      <use xlink:href="#DejaVuSans-65" x="478.669922"/>
      <use xlink:href="#DejaVuSans-6e" x="540.193359"/>
      <use xlink:href="#DejaVuSans-63" x="603.572266"/>
      <use xlink:href="#DejaVuSans-79" x="658.552734"/>
      <use xlink:href="#DejaVuSans-20" x="717.732422"/>
      <use xlink:href="#DejaVuSans-28" x="749.519531"/>
      <use xlink:href="#DejaVuSans-6d" x="788.533203"/>
      <use xlink:href="#DejaVuSans-73" x="885.945312"/>
      <use xlink:href="#DejaVuSans-29" x="938.044922"/>
     </g>
    </g>
   </g>
   <g id="line2d_29">
    <path d="M 53.75 146.3 
L 60.2406 130.545823 
L 63.666194 122.804106 
L 66.550906 116.813713 
L 69.075028 112.06983 
L 71.418856 108.144867 
L 73.582389 104.973892 
L 75.565628 102.47468 
L 77.368572 100.556246 
L 78.991222 99.125609 
L 80.613872 97.97967 
L 82.236522 97.120001 
L 83.678878 96.595453 
L 85.121233 96.294008 
L 86.563589 96.211745 
L 88.005944 96.343209 
L 89.4483 96.681444 
L 91.07095 97.298598 
L 92.6936 98.152712 
L 94.496544 99.35992 
L 96.479783 100.972725 
L 98.643317 103.030094 
L 101.167439 105.75441 
L 104.232444 109.406065 
L 110.362456 117.169906 
L 114.148639 121.763437 
L 116.853056 124.723573 
L 119.196883 126.972659 
L 121.180122 128.59324 
L 122.983067 129.808364 
L 124.786011 130.751664 
L 126.408661 131.349888 
L 128.031311 131.696096 
L 129.473667 131.782789 
L 130.916022 131.654473 
L 132.358378 131.306014 
L 133.800733 130.733822 
L 135.243089 129.935871 
L 136.865739 128.767837 
L 138.488389 127.315332 
L 140.291333 125.373103 
L 142.094278 123.09451 
L 144.077517 120.215373 
L 146.24105 116.65507 
L 148.584878 112.344836 
L 151.109 107.23643 
L 154.174006 100.492478 
L 157.960189 91.563464 
L 161.746372 82.275052 
L 161.926667 210.976176 
L 168.417267 195.214844 
L 171.842861 187.463796 
L 174.727572 181.462886 
L 177.251694 176.708048 
L 179.595522 172.771661 
L 181.759056 169.589259 
L 183.742294 167.078987 
L 185.545239 165.150138 
L 187.167889 163.709931 
L 188.790539 162.554325 
L 190.413189 161.684978 
L 191.855544 161.151886 
L 193.2979 160.842016 
L 194.740256 160.751506 
L 196.182611 160.874957 
L 197.624967 161.205471 
L 199.247617 161.814354 
L 200.870267 162.660709 
L 202.673211 163.859976 
L 204.65645 165.464976 
L 206.819983 167.515059 
L 209.344106 170.232641 
L 212.409111 173.878869 
L 218.178533 181.186657 
L 222.145011 186.031551 
L 225.029722 189.207665 
L 227.37355 191.464509 
L 229.356789 193.092838 
L 231.159733 194.315856 
L 232.962678 195.267769 
L 234.585328 195.874285 
L 236.207978 196.229218 
L 237.650333 196.323968 
L 239.092689 196.203935 
L 240.535044 195.863927 
L 241.9774 195.300292 
L 243.419756 194.510947 
L 245.042406 193.352578 
L 246.665056 191.909636 
L 248.468 189.977811 
L 250.270944 187.709279 
L 252.254183 184.84068 
L 254.417717 181.291085 
L 256.761544 176.991332 
L 259.285667 171.892695 
L 262.170378 165.568374 
L 265.776267 157.107382 
L 272.266867 141.168128 
L 277.315111 129.057391 
L 280.560411 121.808944 
L 283.445122 115.902693 
L 285.969244 111.246026 
L 288.132778 107.688782 
L 290.116017 104.812656 
L 292.099256 102.327688 
L 293.9022 100.422659 
L 295.52485 99.004335 
L 297.1475 97.870829 
L 298.77015 97.023605 
L 300.212506 96.510038 
L 301.654861 96.219418 
L 303.097217 96.14775 
L 304.539572 96.289502 
L 305.981928 96.637648 
L 307.604578 97.265414 
L 309.227228 98.12948 
L 311.030172 99.346864 
L 313.013411 100.969663 
L 315.176944 103.036352 
L 317.701067 105.769265 
L 320.766072 109.427816 
L 332.485211 123.785658 
L 335.009333 126.316654 
L 337.172867 128.169091 
L 339.156106 129.565113 
L 340.95905 130.553713 
L 342.5817 131.195582 
L 344.20435 131.587756 
L 345.646706 131.71693 
L 347.089061 131.63231 
L 348.531417 131.328457 
L 349.973772 130.801466 
L 351.416128 130.048997 
L 353.038778 128.932069 
L 354.661428 127.530168 
L 356.284078 125.847136 
L 358.087022 123.655168 
L 360.070261 120.866914 
L 362.233794 117.39913 
L 364.577622 113.17968 
L 367.101744 108.156188 
L 369.986456 101.901353 
L 373.592344 93.499851 
L 378.099706 82.480708 
L 378.28 211.181857 
L 384.950894 194.984197 
L 388.376489 187.245159 
L 391.2612 181.257781 
L 393.785322 176.517036 
L 396.12915 172.595344 
L 398.292683 169.427639 
L 400.275922 166.931593 
L 402.078867 165.016138 
L 403.701517 163.588238 
L 405.324167 162.445063 
L 406.946817 161.588162 
L 408.389172 161.066056 
L 409.831528 160.767018 
L 411.273883 160.687113 
L 412.716239 160.820865 
L 414.158594 161.161306 
L 415.781244 161.780822 
L 417.403894 162.637151 
L 419.206839 163.846625 
L 421.190078 165.461656 
L 423.353611 167.521102 
L 425.877733 170.247336 
L 428.942739 173.900532 
L 435.07275 181.664712 
L 438.858933 186.256614 
L 441.56335 189.21477 
L 443.907178 191.461631 
L 445.890417 193.079991 
L 447.693361 194.292855 
L 449.496306 195.233687 
L 451.118956 195.829538 
L 452.741606 196.173249 
L 454.183961 196.257636 
L 455.626317 196.126951 
L 457.068672 195.776075 
L 458.511028 195.201435 
L 459.953383 194.401023 
L 461.576033 193.230227 
L 463.198683 191.774988 
L 465.001628 189.829786 
L 466.804572 187.548319 
L 468.787811 184.666171 
L 470.951344 181.102812 
L 473.295172 176.789586 
L 475.819294 171.678394 
L 478.8843 164.931747 
L 482.670483 156.000564 
L 496.012272 123.941151 
L 498.896983 117.841782 
L 501.421106 112.983768 
L 503.764933 108.93936 
L 505.928467 105.64857 
L 507.911706 103.033122 
L 509.71465 101.005033 
L 511.517594 99.320748 
L 513.140244 98.104425 
L 514.762894 97.17422 
L 516.20525 96.587351 
L 517.647606 96.224396 
L 519.089961 96.081866 
L 520.532317 96.154725 
L 521.974672 96.436432 
L 523.597322 96.992964 
L 525.219972 97.79012 
L 527.022917 98.938952 
L 529.006156 100.494248 
L 531.169689 102.497756 
L 533.693811 105.172027 
L 536.758817 108.782874 
L 541.626767 114.931797 
L 546.314422 120.744098 
L 549.199133 123.987288 
L 551.542961 126.316505 
L 553.706494 128.158441 
L 555.689733 129.543492 
L 557.492678 130.521124 
L 559.115328 131.152417 
L 560.737978 131.533444 
L 562.180333 131.652309 
L 563.622689 131.557079 
L 565.065044 131.242388 
L 566.5074 130.704409 
L 567.949756 129.940879 
L 569.572406 128.811513 
L 571.195056 127.39729 
L 572.817706 125.70216 
L 574.62065 123.497141 
L 576.603889 120.695176 
L 578.767422 117.213407 
L 581.11125 112.980202 
L 583.635372 107.943803 
L 586.520083 101.676981 
L 590.125972 93.265118 
L 594.453039 82.686338 
L 594.633333 211.387526 
L 601.304228 195.175624 
L 604.729822 187.417948 
L 607.614533 181.409554 
L 610.138656 176.646913 
L 612.482483 172.702386 
L 614.646017 169.511836 
L 616.629256 166.993673 
L 618.4322 165.057392 
L 620.05485 163.610355 
L 621.6775 162.447848 
L 623.30015 161.571589 
L 624.742506 161.032394 
L 626.184861 160.716504 
L 627.627217 160.620099 
L 629.069572 160.737823 
L 630.511928 161.062816 
L 632.134578 161.665784 
L 633.757228 162.506585 
L 635.560172 163.700169 
L 637.543411 165.299579 
L 639.706944 167.344438 
L 642.231067 170.057184 
L 645.296072 173.699504 
L 650.8852 180.777979 
L 655.031972 185.854942 
L 657.916683 189.036218 
L 660.260511 191.298579 
L 662.24375 192.932423 
L 664.046694 194.161063 
L 665.849639 195.119116 
L 667.472289 195.731542 
L 669.094939 196.092697 
L 670.537294 196.193195 
L 671.97965 196.079072 
L 673.422006 195.745095 
L 674.864361 195.187569 
L 676.306717 194.40437 
L 677.929367 193.252902 
L 679.552017 191.816793 
L 681.354961 189.892402 
L 683.157906 187.631062 
L 685.141144 184.769999 
L 687.304678 181.228064 
L 689.648506 176.935812 
L 692.172628 171.844173 
L 695.057339 165.526292 
L 698.663228 157.070754 
L 702.990294 146.471498 
L 702.990294 146.471498 
" clip-path="url(#p2abaa0eec9)" style="fill: none; stroke: #000000; stroke-width: 2; stroke-linecap: square"/>
   </g>
   <g id="line2d_30">
    <path d="M 55.552944 146.3 
L 55.552946 243.16 
" clip-path="url(#p2abaa0eec9)" style="fill: none; stroke-dasharray: 7.4,3.2; stroke-dashoffset: 0; stroke: #008000; stroke-width: 2"/>
    <defs>
     <path id="ma96dbb317d" d="M -0 4.242641 
L 4.242641 0 
L 0 -4.242641 
L -4.242641 -0 
z
" style="stroke: #008000; stroke-linejoin: miter"/>
    </defs>
    <g clip-path="url(#p2abaa0eec9)">
     <use xlink:href="#ma96dbb317d" x="55.552944" y="146.3" style="fill: #008000; stroke: #008000; stroke-linejoin: miter"/>
     <use xlink:href="#ma96dbb317d" x="55.552946" y="243.16" style="fill: #008000; stroke: #008000; stroke-linejoin: miter"/>
    </g>
   </g>
   <g id="line2d_31">
    <path d="M 107.838333 146.3 
L 107.838335 81.726667 
" clip-path="url(#p2abaa0eec9)" style="fill: none; stroke-dasharray: 7.4,3.2; stroke-dashoffset: 0; stroke: #0000ff; stroke-width: 2"/>
    <defs>
     <path id="m9de7abeeb2" d="M -0 4.242641 
L 4.242641 0 
L 0 -4.242641 
L -4.242641 -0 
z
" style="stroke: #0000ff; stroke-linejoin: miter"/>
    </defs>
    <g clip-path="url(#p2abaa0eec9)">
     <use xlink:href="#m9de7abeeb2" x="107.838333" y="146.3" style="fill: #0000ff; stroke: #0000ff; stroke-linejoin: miter"/>
     <use xlink:href="#m9de7abeeb2" x="107.838335" y="81.726667" style="fill: #0000ff; stroke: #0000ff; stroke-linejoin: miter"/>
    </g>
   </g>
   <g id="line2d_32">
    <path d="M 53.75 146.3 
L 270.103333 146.3 
" clip-path="url(#p2abaa0eec9)" style="fill: none; stroke-dasharray: 7.4,3.2; stroke-dashoffset: 0; stroke: #ff0000; stroke-width: 2"/>
    <defs>
     <path id="m6b73521df0" d="M -0 4.242641 
L 4.242641 0 
L 0 -4.242641 
L -4.242641 -0 
z
" style="stroke: #ff0000; stroke-linejoin: miter"/>
    </defs>
    <g clip-path="url(#p2abaa0eec9)">
     <use xlink:href="#m6b73521df0" x="53.75" y="146.3" style="fill: #ff0000; stroke: #ff0000; stroke-linejoin: miter"/>
     <use xlink:href="#m6b73521df0" x="270.103333" y="146.3" style="fill: #ff0000; stroke: #ff0000; stroke-linejoin: miter"/>
    </g>
   </g>
   <g id="line2d_33">
    <path d="M 53.75 114.013333 
L 161.926667 114.013333 
" clip-path="url(#p2abaa0eec9)" style="fill: none; stroke-dasharray: 7.4,3.2; stroke-dashoffset: 0; stroke: #bfbf00; stroke-width: 2"/>
    <defs>
     <path id="m7aae15274b" d="M -0 4.242641 
L 4.242641 0 
L 0 -4.242641 
L -4.242641 -0 
z
" style="stroke: #bfbf00; stroke-linejoin: miter"/>
    </defs>
    <g clip-path="url(#p2abaa0eec9)">
     <use xlink:href="#m7aae15274b" x="53.75" y="114.013333" style="fill: #bfbf00; stroke: #bfbf00; stroke-linejoin: miter"/>
     <use xlink:href="#m7aae15274b" x="161.926667" y="114.013333" style="fill: #bfbf00; stroke: #bfbf00; stroke-linejoin: miter"/>
    </g>
   </g>
   <g id="patch_3">
    <path d="M 53.75 243.16 
L 53.75 49.44 
" style="fill: none; stroke: #ffffff; stroke-linejoin: miter; stroke-linecap: square"/>
   </g>
   <g id="patch_4">
    <path d="M 702.81 243.16 
L 702.81 49.44 
" style="fill: none; stroke: #ffffff; stroke-linejoin: miter; stroke-linecap: square"/>
   </g>
   <g id="patch_5">
    <path d="M 53.75 243.16 
L 702.81 243.16 
" style="fill: none; stroke: #ffffff; stroke-linejoin: miter; stroke-linecap: square"/>
   </g>
   <g id="patch_6">
    <path d="M 53.75 49.44 
L 702.81 49.44 
" style="fill: none; stroke: #ffffff; stroke-linejoin: miter; stroke-linecap: square"/>
   </g>
   <g id="text_17">
    <!-- speedbump - -latency=300ms - -saw-amplitude=200ms - -saw-period=2m -->
    <g transform="translate(115.582375 21.31515)scale(0.144 -0.144)">
     <defs>
      <path id="DejaVuSans-70" d="M 1159 525 
L 1159 -1331 
L 581 -1331 
L 581 3500 
L 1159 3500 
L 1159 2969 
Q 1341 3281 1617 3432 
Q 1894 3584 2278 3584 
Q 2916 3584 3314 3078 
Q 3713 2572 3713 1747 
Q 3713 922 3314 415 
Q 2916 -91 2278 -91 
Q 1894 -91 1617 61 
Q 1341 213 1159 525 
z
M 3116 1747 
Q 3116 2381 2855 2742 
Q 2594 3103 2138 3103 
Q 1681 3103 1420 2742 
Q 1159 2381 1159 1747 
Q 1159 1113 1420 752 
Q 1681 391 2138 391 
Q 2594 391 2855 752 
Q 3116 1113 3116 1747 
z
" transform="scale(0.015625)"/>
      <path id="DejaVuSans-62" d="M 3116 1747 
Q 3116 2381 2855 2742 
Q 2594 3103 2138 3103 
Q 1681 3103 1420 2742 
Q 1159 2381 1159 1747 
Q 1159 1113 1420 752 
Q 1681 391 2138 391 
Q 2594 391 2855 752 
Q 3116 1113 3116 1747 
z
M 1159 2969 
Q 1341 3281 1617 3432 
Q 1894 3584 2278 3584 
Q 2916 3584 3314 3078 
Q 3713 2572 3713 1747 
Q 3713 922 3314 415 
Q 2916 -91 2278 -91 
Q 1894 -91 1617 61 
Q 1341 213 1159 525 
L 1159 0 
L 581 0 
L 581 4863 
L 1159 4863 
L 1159 2969 
z
" transform="scale(0.015625)"/>
      <path id="DejaVuSans-2d" d="M 313 2009 
L 1997 2009 
L 1997 1497 
L 313 1497 
L 313 2009 
z
" transform="scale(0.015625)"/>
      <path id="DejaVuSans-3d" d="M 678 2906 
L 4684 2906 
L 4684 2381 
L 678 2381 
L 678 2906 
z
M 678 1631 
L 4684 1631 
L 4684 1100 
L 678 1100 
L 678 1631 
z
" transform="scale(0.015625)"/>
      <path id="DejaVuSans-77" d="M 269 3500 
L 844 3500 
L 1563 769 
L 2278 3500 
L 2956 3500 
L 3675 769 
L 4391 3500 
L 4966 3500 
L 4050 0 
L 3372 0 
L 2619 2869 
L 1863 0 
L 1184 0 
L 269 3500 
z
" transform="scale(0.015625)"/>
      <path id="DejaVuSans-6f" d="M 1959 3097 
Q 1497 3097 1228 2736 
Q 959 2375 959 1747 
Q 959 1119 1226 758 
Q 1494 397 1959 397 
Q 2419 397 2687 759 
Q 2956 1122 2956 1747 
Q 2956 2369 2687 2733 
Q 2419 3097 1959 3097 
z
M 1959 3584 
Q 2709 3584 3137 3096 
Q 3566 2609 3566 1747 
Q 3566 888 3137 398 
Q 2709 -91 1959 -91 
Q 1206 -91 779 398 
Q 353 888 353 1747 
Q 353 2609 779 3096 
Q 1206 3584 1959 3584 
z
" transform="scale(0.015625)"/>
     </defs>
     <use xlink:href="#DejaVuSans-73"/>
     <use xlink:href="#DejaVuSans-70" x="52.099609"/>
     <use xlink:href="#DejaVuSans-65" x="115.576172"/>
     <use xlink:href="#DejaVuSans-65" x="177.099609"/>
     <use xlink:href="#DejaVuSans-64" x="238.623047"/>
     <use xlink:href="#DejaVuSans-62" x="302.099609"/>
     <use xlink:href="#DejaVuSans-75" x="365.576172"/>
     <use xlink:href="#DejaVuSans-6d" x="428.955078"/>
     <use xlink:href="#DejaVuSans-70" x="526.367188"/>
     <use xlink:href="#DejaVuSans-20" x="589.84375"/>
     <use xlink:href="#DejaVuSans-2d" x="621.630859"/>
     <use xlink:href="#DejaVuSans-2d" x="657.714844"/>
     <use xlink:href="#DejaVuSans-6c" x="693.798828"/>
     <use xlink:href="#DejaVuSans-61" x="721.582031"/>
     <use xlink:href="#DejaVuSans-74" x="782.861328"/>
     <use xlink:href="#DejaVuSans-65" x="822.070312"/>
     <use xlink:href="#DejaVuSans-6e" x="883.59375"/>
     <use xlink:href="#DejaVuSans-63" x="946.972656"/>
     <use xlink:href="#DejaVuSans-79" x="1001.953125"/>
     <use xlink:href="#DejaVuSans-3d" x="1061.132812"/>
     <use xlink:href="#DejaVuSans-33" x="1144.921875"/>
     <use xlink:href="#DejaVuSans-30" x="1208.544922"/>
     <use xlink:href="#DejaVuSans-30" x="1272.167969"/>
     <use xlink:href="#DejaVuSans-6d" x="1335.791016"/>
     <use xlink:href="#DejaVuSans-73" x="1433.203125"/>
     <use xlink:href="#DejaVuSans-20" x="1485.302734"/>
     <use xlink:href="#DejaVuSans-2d" x="1517.089844"/>
     <use xlink:href="#DejaVuSans-2d" x="1553.173828"/>
     <use xlink:href="#DejaVuSans-73" x="1589.257812"/>
     <use xlink:href="#DejaVuSans-61" x="1641.357422"/>
     <use xlink:href="#DejaVuSans-77" x="1702.636719"/>
     <use xlink:href="#DejaVuSans-2d" x="1784.423828"/>
     <use xlink:href="#DejaVuSans-61" x="1820.507812"/>
     <use xlink:href="#DejaVuSans-6d" x="1881.787109"/>
     <use xlink:href="#DejaVuSans-70" x="1979.199219"/>
     <use xlink:href="#DejaVuSans-6c" x="2042.675781"/>
     <use xlink:href="#DejaVuSans-69" x="2070.458984"/>
     <use xlink:href="#DejaVuSans-74" x="2098.242188"/>
     <use xlink:href="#DejaVuSans-75" x="2137.451172"/>
     <use xlink:href="#DejaVuSans-64" x="2200.830078"/>
     <use xlink:href="#DejaVuSans-65" x="2264.306641"/>
     <use xlink:href="#DejaVuSans-3d" x="2325.830078"/>
     <use xlink:href="#DejaVuSans-32" x="2409.619141"/>
     <use xlink:href="#DejaVuSans-30" x="2473.242188"/>
     <use xlink:href="#DejaVuSans-30" x="2536.865234"/>
     <use xlink:href="#DejaVuSans-6d" x="2600.488281"/>
     <use xlink:href="#DejaVuSans-73" x="2697.900391"/>
     <use xlink:href="#DejaVuSans-20" x="2750"/>
     <use xlink:href="#DejaVuSans-2d" x="2781.787109"/>
     <use xlink:href="#DejaVuSans-2d" x="2817.871094"/>
     <use xlink:href="#DejaVuSans-73" x="2853.955078"/>
     <use xlink:href="#DejaVuSans-61" x="2906.054688"/>
     <use xlink:href="#DejaVuSans-77" x="2967.333984"/>
     <use xlink:href="#DejaVuSans-2d" x="3049.121094"/>
     <use xlink:href="#DejaVuSans-70" x="3085.205078"/>
     <use xlink:href="#DejaVuSans-65" x="3148.681641"/>
     <use xlink:href="#DejaVuSans-72" x="3210.205078"/>
     <use xlink:href="#DejaVuSans-69" x="3251.318359"/>
     <use xlink:href="#DejaVuSans-6f" x="3279.101562"/>
     <use xlink:href="#DejaVuSans-64" x="3340.283203"/>
     <use xlink:href="#DejaVuSans-3d" x="3403.759766"/>
     <use xlink:href="#DejaVuSans-32" x="3487.548828"/>
     <use xlink:href="#DejaVuSans-6d" x="3551.171875"/>
    </g>
    <!-- - -sine-amplitude=100ms - -sine-period=1m -->
    <g transform="translate(223.42825 37.44)scale(0.144 -0.144)">
     <use xlink:href="#DejaVuSans-2d"/>
     <use xlink:href="#DejaVuSans-2d" x="36.083984"/>
     <use xlink:href="#DejaVuSans-73" x="72.167969"/>
     <use xlink:href="#DejaVuSans-69" x="124.267578"/>
     <use xlink:href="#DejaVuSans-6e" x="152.050781"/>
     <use xlink:href="#DejaVuSans-65" x="215.429688"/>
     <use xlink:href="#DejaVuSans-2d" x="276.953125"/>
     <use xlink:href="#DejaVuSans-61" x="313.037109"/>
     <use xlink:href="#DejaVuSans-6d" x="374.316406"/>
     <use xlink:href="#DejaVuSans-70" x="471.728516"/>
     <use xlink:href="#DejaVuSans-6c" x="535.205078"/>
     <use xlink:href="#DejaVuSans-69" x="562.988281"/>
     <use xlink:href="#DejaVuSans-74" x="590.771484"/>
     <use xlink:href="#DejaVuSans-75" x="629.980469"/>
     <use xlink:href="#DejaVuSans-64" x="693.359375"/>
     <use xlink:href="#DejaVuSans-65" x="756.835938"/>
     <use xlink:href="#DejaVuSans-3d" x="818.359375"/>
     <use xlink:href="#DejaVuSans-31" x="902.148438"/>
     <use xlink:href="#DejaVuSans-30" x="965.771484"/>
     <use xlink:href="#DejaVuSans-30" x="1029.394531"/>
     <use xlink:href="#DejaVuSans-6d" x="1093.017578"/>
     <use xlink:href="#DejaVuSans-73" x="1190.429688"/>
     <use xlink:href="#DejaVuSans-20" x="1242.529297"/>
     <use xlink:href="#DejaVuSans-2d" x="1274.316406"/>
     <use xlink:href="#DejaVuSans-2d" x="1310.400391"/>
     <use xlink:href="#DejaVuSans-73" x="1346.484375"/>
     <use xlink:href="#DejaVuSans-69" x="1398.583984"/>
     <use xlink:href="#DejaVuSans-6e" x="1426.367188"/>
     <use xlink:href="#DejaVuSans-65" x="1489.746094"/>
     <use xlink:href="#DejaVuSans-2d" x="1551.269531"/>
     <use xlink:href="#DejaVuSans-70" x="1587.353516"/>
     <use xlink:href="#DejaVuSans-65" x="1650.830078"/>
     <use xlink:href="#DejaVuSans-72" x="1712.353516"/>
     <use xlink:href="#DejaVuSans-69" x="1753.466797"/>
     <use xlink:href="#DejaVuSans-6f" x="1781.25"/>
     <use xlink:href="#DejaVuSans-64" x="1842.431641"/>
     <use xlink:href="#DejaVuSans-3d" x="1905.908203"/>
     <use xlink:href="#DejaVuSans-31" x="1989.697266"/>
     <use xlink:href="#DejaVuSans-6d" x="2053.320312"/>
    </g>
   </g>
   <g id="legend_1">
    <g id="patch_7">
     <path d="M 157.471875 69.850313 
L 696.51 69.850313 
Q 698.31 69.850313 698.31 68.050312 
L 698.31 55.74 
Q 698.31 53.94 696.51 53.94 
L 157.471875 53.94 
Q 155.671875 53.94 155.671875 55.74 
L 155.671875 68.050312 
Q 155.671875 69.850313 157.471875 69.850313 
z
" style="fill: #e5e5e5; opacity: 0.8; stroke: #cccccc; stroke-width: 0.5; stroke-linejoin: miter"/>
    </g>
    <g id="line2d_34">
     <path d="M 159.271875 61.228594 
L 168.271875 61.228594 
L 177.271875 61.228594 
" style="fill: none; stroke: #000000; stroke-width: 2; stroke-linecap: square"/>
    </g>
    <g id="text_18">
     <!-- Added latency -->
     <g transform="translate(184.471875 64.378594)scale(0.09 -0.09)">
      <use xlink:href="#DejaVuSans-41"/>
      <use xlink:href="#DejaVuSans-64" x="66.658203"/>
      <use xlink:href="#DejaVuSans-64" x="130.134766"/>
      <use xlink:href="#DejaVuSans-65" x="193.611328"/>
      <use xlink:href="#DejaVuSans-64" x="255.134766"/>
      <use xlink:href="#DejaVuSans-20" x="318.611328"/>
      <use xlink:href="#DejaVuSans-6c" x="350.398438"/>
      <use xlink:href="#DejaVuSans-61" x="378.181641"/>
      <use xlink:href="#DejaVuSans-74" x="439.460938"/>
      <use xlink:href="#DejaVuSans-65" x="478.669922"/>
      <use xlink:href="#DejaVuSans-6e" x="540.193359"/>
      <use xlink:href="#DejaVuSans-63" x="603.572266"/>
      <use xlink:href="#DejaVuSans-79" x="658.552734"/>
     </g>
    </g>
    <g id="line2d_35">
     <path d="M 267.070781 61.228594 
L 276.070781 61.228594 
L 285.070781 61.228594 
" style="fill: none; stroke-dasharray: 7.4,3.2; stroke-dashoffset: 0; stroke: #008000; stroke-width: 2"/>
     <g>
      <use xlink:href="#ma96dbb317d" x="276.070781" y="61.228594" style="fill: #008000; stroke: #008000; stroke-linejoin: miter"/>
     </g>
    </g>
    <g id="text_19">
     <!-- Base latency -->
     <g transform="translate(292.270781 64.378594)scale(0.09 -0.09)">
      <defs>
       <path id="DejaVuSans-42" d="M 1259 2228 
L 1259 519 
L 2272 519 
Q 2781 519 3026 730 
Q 3272 941 3272 1375 
Q 3272 1813 3026 2020 
Q 2781 2228 2272 2228 
L 1259 2228 
z
M 1259 4147 
L 1259 2741 
L 2194 2741 
Q 2656 2741 2882 2914 
Q 3109 3088 3109 3444 
Q 3109 3797 2882 3972 
Q 2656 4147 2194 4147 
L 1259 4147 
z
M 628 4666 
L 2241 4666 
Q 2963 4666 3353 4366 
Q 3744 4066 3744 3513 
Q 3744 3084 3544 2831 
Q 3344 2578 2956 2516 
Q 3422 2416 3680 2098 
Q 3938 1781 3938 1306 
Q 3938 681 3513 340 
Q 3088 0 2303 0 
L 628 0 
L 628 4666 
z
" transform="scale(0.015625)"/>
      </defs>
      <use xlink:href="#DejaVuSans-42"/>
      <use xlink:href="#DejaVuSans-61" x="68.603516"/>
      <use xlink:href="#DejaVuSans-73" x="129.882812"/>
      <use xlink:href="#DejaVuSans-65" x="181.982422"/>
      <use xlink:href="#DejaVuSans-20" x="243.505859"/>
      <use xlink:href="#DejaVuSans-6c" x="275.292969"/>
      <use xlink:href="#DejaVuSans-61" x="303.076172"/>
      <use xlink:href="#DejaVuSans-74" x="364.355469"/>
      <use xlink:href="#DejaVuSans-65" x="403.564453"/>
      <use xlink:href="#DejaVuSans-6e" x="465.087891"/>
      <use xlink:href="#DejaVuSans-63" x="528.466797"/>
      <use xlink:href="#DejaVuSans-79" x="583.447266"/>
     </g>
    </g>
    <g id="line2d_36">
     <path d="M 368.108438 61.228594 
L 377.108438 61.228594 
L 386.108438 61.228594 
" style="fill: none; stroke-dasharray: 7.4,3.2; stroke-dashoffset: 0; stroke: #0000ff; stroke-width: 2"/>
     <g>
      <use xlink:href="#m9de7abeeb2" x="377.108438" y="61.228594" style="fill: #0000ff; stroke: #0000ff; stroke-linejoin: miter"/>
     </g>
    </g>
    <g id="text_20">
     <!-- Sawtooth Amplitude -->
     <g transform="translate(393.308438 64.378594)scale(0.09 -0.09)">
      <defs>
       <path id="DejaVuSans-53" d="M 3425 4513 
L 3425 3897 
Q 3066 4069 2747 4153 
Q 2428 4238 2131 4238 
Q 1616 4238 1336 4038 
Q 1056 3838 1056 3469 
Q 1056 3159 1242 3001 
Q 1428 2844 1947 2747 
L 2328 2669 
Q 3034 2534 3370 2195 
Q 3706 1856 3706 1288 
Q 3706 609 3251 259 
Q 2797 -91 1919 -91 
Q 1588 -91 1214 -16 
Q 841 59 441 206 
L 441 856 
Q 825 641 1194 531 
Q 1563 422 1919 422 
Q 2459 422 2753 634 
Q 3047 847 3047 1241 
Q 3047 1584 2836 1778 
Q 2625 1972 2144 2069 
L 1759 2144 
Q 1053 2284 737 2584 
Q 422 2884 422 3419 
Q 422 4038 858 4394 
Q 1294 4750 2059 4750 
Q 2388 4750 2728 4690 
Q 3069 4631 3425 4513 
z
" transform="scale(0.015625)"/>
       <path id="DejaVuSans-68" d="M 3513 2113 
L 3513 0 
L 2938 0 
L 2938 2094 
Q 2938 2591 2744 2837 
Q 2550 3084 2163 3084 
Q 1697 3084 1428 2787 
Q 1159 2491 1159 1978 
L 1159 0 
L 581 0 
L 581 4863 
L 1159 4863 
L 1159 2956 
Q 1366 3272 1645 3428 
Q 1925 3584 2291 3584 
Q 2894 3584 3203 3211 
Q 3513 2838 3513 2113 
z
" transform="scale(0.015625)"/>
      </defs>
      <use xlink:href="#DejaVuSans-53"/>
      <use xlink:href="#DejaVuSans-61" x="63.476562"/>
      <use xlink:href="#DejaVuSans-77" x="124.755859"/>
      <use xlink:href="#DejaVuSans-74" x="206.542969"/>
      <use xlink:href="#DejaVuSans-6f" x="245.751953"/>
      <use xlink:href="#DejaVuSans-6f" x="306.933594"/>
      <use xlink:href="#DejaVuSans-74" x="368.115234"/>
      <use xlink:href="#DejaVuSans-68" x="407.324219"/>
      <use xlink:href="#DejaVuSans-20" x="470.703125"/>
      <use xlink:href="#DejaVuSans-41" x="502.490234"/>
      <use xlink:href="#DejaVuSans-6d" x="570.898438"/>
      <use xlink:href="#DejaVuSans-70" x="668.310547"/>
      <use xlink:href="#DejaVuSans-6c" x="731.787109"/>
      <use xlink:href="#DejaVuSans-69" x="759.570312"/>
      <use xlink:href="#DejaVuSans-74" x="787.353516"/>
      <use xlink:href="#DejaVuSans-75" x="826.5625"/>
      <use xlink:href="#DejaVuSans-64" x="889.941406"/>
      <use xlink:href="#DejaVuSans-65" x="953.417969"/>
     </g>
    </g>
    <g id="line2d_37">
     <path d="M 502.652812 61.228594 
L 511.652812 61.228594 
L 520.652812 61.228594 
" style="fill: none; stroke-dasharray: 7.4,3.2; stroke-dashoffset: 0; stroke: #ff0000; stroke-width: 2"/>
     <g>
      <use xlink:href="#m6b73521df0" x="511.652812" y="61.228594" style="fill: #ff0000; stroke: #ff0000; stroke-linejoin: miter"/>
     </g>
    </g>
    <g id="text_21">
     <!-- Sawtooth Period -->
     <g transform="translate(527.852813 64.378594)scale(0.09 -0.09)">
      <defs>
       <path id="DejaVuSans-50" d="M 1259 4147 
L 1259 2394 
L 2053 2394 
Q 2494 2394 2734 2622 
Q 2975 2850 2975 3272 
Q 2975 3691 2734 3919 
Q 2494 4147 2053 4147 
L 1259 4147 
z
M 628 4666 
L 2053 4666 
Q 2838 4666 3239 4311 
Q 3641 3956 3641 3272 
Q 3641 2581 3239 2228 
Q 2838 1875 2053 1875 
L 1259 1875 
L 1259 0 
L 628 0 
L 628 4666 
z
" transform="scale(0.015625)"/>
      </defs>
      <use xlink:href="#DejaVuSans-53"/>
      <use xlink:href="#DejaVuSans-61" x="63.476562"/>
      <use xlink:href="#DejaVuSans-77" x="124.755859"/>
      <use xlink:href="#DejaVuSans-74" x="206.542969"/>
      <use xlink:href="#DejaVuSans-6f" x="245.751953"/>
      <use xlink:href="#DejaVuSans-6f" x="306.933594"/>
      <use xlink:href="#DejaVuSans-74" x="368.115234"/>
      <use xlink:href="#DejaVuSans-68" x="407.324219"/>
      <use xlink:href="#DejaVuSans-20" x="470.703125"/>
      <use xlink:href="#DejaVuSans-50" x="502.490234"/>
      <use xlink:href="#DejaVuSans-65" x="559.167969"/>
      <use xlink:href="#DejaVuSans-72" x="620.691406"/>
      <use xlink:href="#DejaVuSans-69" x="661.804688"/>
      <use xlink:href="#DejaVuSans-6f" x="689.587891"/>
      <use xlink:href="#DejaVuSans-64" x="750.769531"/>
     </g>
    </g>
    <g id="line2d_38">
     <path d="M 619.135313 61.228594 
L 628.135313 61.228594 
L 637.135313 61.228594 
" style="fill: none; stroke-dasharray: 7.4,3.2; stroke-dashoffset: 0; stroke: #bfbf00; stroke-width: 2"/>
     <g>
      <use xlink:href="#m7aae15274b" x="628.135313" y="61.228594" style="fill: #bfbf00; stroke: #bfbf00; stroke-linejoin: miter"/>
     </g>
    </g>
    <g id="text_22">
     <!-- Sine Period -->
     <g transform="translate(644.335313 64.378594)scale(0.09 -0.09)">
      <use xlink:href="#DejaVuSans-53"/>
      <use xlink:href="#DejaVuSans-69" x="63.476562"/>
      <use xlink:href="#DejaVuSans-6e" x="91.259766"/>
      <use xlink:href="#DejaVuSans-65" x="154.638672"/>
      <use xlink:href="#DejaVuSans-20" x="216.162109"/>
      <use xlink:href="#DejaVuSans-50" x="247.949219"/>
      <use xlink:href="#DejaVuSans-65" x="304.626953"/>
      <use xlink:href="#DejaVuSans-72" x="366.150391"/>
      <use xlink:href="#DejaVuSans-69" x="407.263672"/>
      <use xlink:href="#DejaVuSans-6f" x="435.046875"/>
      <use xlink:href="#DejaVuSans-64" x="496.228516"/>
     </g>
    </g>
   </g>
  </g>
 </g>
 <defs>
  <clipPath id="p2abaa0eec9">
   <rect x="53.75" y="49.44" width="649.06" height="193.72"/>
  </clipPath>
 </defs>
</svg>
